<svg xmlns="http://www.w3.org/2000/svg" xmlns:xlink="http://www.w3.org/1999/xlink" width="405" zoomAndPan="magnify" viewBox="0 0 303.75 88.499997" height="118" preserveAspectRatio="xMidYMid meet" version="1.0"><defs><g/></defs><g fill="#000000" fill-opacity="1"><g transform="translate(20.622232, 45.245373)"><g><path d="M 21.84375 -28.066406 L 0.878906 -28.066406 L 0.878906 -27.5625 L 3.800781 -27.5625 L 3.800781 -0.5 L 0.878906 -0.5 L 0.878906 0 L 10.984375 0 L 10.984375 -0.5 L 8.058594 -0.5 L 8.058594 -14.117188 L 10.816406 -14.117188 C 13.78125 -14.117188 16.121094 -11.859375 16.371094 -8.601562 L 16.789062 -8.601562 L 16.789062 -20.421875 L 16.371094 -20.421875 C 16.203125 -16.871094 13.78125 -14.699219 10.566406 -14.699219 L 8.058594 -14.699219 L 8.058594 -27.5625 L 13.199219 -27.5625 C 17.582031 -27.5625 20.589844 -25.308594 21.425781 -20.378906 L 21.84375 -20.378906 Z M 21.84375 -28.066406 "/></g></g><g transform="translate(44.093624, 45.245373)"><g><path d="M 25.726562 -28.066406 L 19.296875 -28.066406 L 19.296875 -27.5625 L 22.21875 -27.5625 L 22.21875 -8.101562 C 22.21875 -1.796875 17.039062 -0.0429688 13.78125 -0.0429688 C 10.148438 -0.0429688 7.851562 -1.753906 7.851562 -4.96875 L 7.851562 -27.5625 L 10.773438 -27.5625 L 10.773438 -28.066406 L 0.667969 -28.066406 L 0.667969 -27.5625 L 3.589844 -27.5625 L 3.589844 -7.390625 C 3.589844 -1.460938 8.394531 0.460938 13.238281 0.460938 C 18.460938 0.460938 22.804688 -2.089844 22.804688 -8.4375 L 22.804688 -27.5625 L 25.726562 -27.5625 Z M 25.726562 -28.066406 "/></g></g><g transform="translate(70.864377, 45.245373)"><g><path d="M 23.222656 -9.105469 L 22.804688 -9.105469 C 22.09375 -3.339844 18.25 -0.5 13.574219 -0.5 L 8.058594 -0.5 L 8.058594 -27.5625 L 10.984375 -27.5625 L 10.984375 -28.066406 L 0.878906 -28.066406 L 0.878906 -27.5625 L 3.800781 -27.5625 L 3.800781 -0.5 L 0.878906 -0.5 L 0.878906 0 L 23.222656 0 Z M 23.222656 -9.105469 "/></g></g></g><g fill="#000000" fill-opacity="1"><g transform="translate(95.338095, 45.245373)"><g><path d="M 23.222656 -9.105469 L 22.804688 -9.105469 C 22.09375 -3.339844 18.25 -0.5 13.574219 -0.5 L 8.058594 -0.5 L 8.058594 -27.5625 L 10.984375 -27.5625 L 10.984375 -28.066406 L 0.878906 -28.066406 L 0.878906 -27.5625 L 3.800781 -27.5625 L 3.800781 -0.5 L 0.878906 -0.5 L 0.878906 0 L 23.222656 0 Z M 23.222656 -9.105469 "/></g></g></g><g fill="#000000" fill-opacity="1"><g transform="translate(119.811819, 45.245373)"><g/></g></g><g fill="#000000" fill-opacity="1"><g transform="translate(127.746987, 45.245373)"><g><path d="M 30.863281 -0.5 L 27.941406 -0.5 L 27.941406 -27.5625 L 30.863281 -27.5625 L 30.863281 -28.066406 L 23.722656 -28.066406 L 16.164062 -6.179688 L 15.996094 -6.179688 L 7.808594 -28.066406 L 0.460938 -28.066406 L 0.460938 -27.5625 L 3.382812 -27.5625 L 3.382812 -0.5 L 0.460938 -0.5 L 0.460938 0 L 6.890625 0 L 6.890625 -0.5 L 3.96875 -0.5 L 3.96875 -26.855469 L 14.242188 0.585938 L 14.449219 0.585938 L 23.765625 -26.476562 L 23.929688 -26.476562 L 23.929688 -0.5 L 21.007812 -0.5 L 21.007812 0 L 30.863281 0 Z M 30.863281 -0.5 "/></g></g></g><g fill="#000000" fill-opacity="1"><g transform="translate(160.740572, 45.245373)"><g><path d="M 27.0625 -13.53125 C 27.0625 -20.546875 22.761719 -28.566406 14.367188 -28.566406 C 6.390625 -28.566406 1.460938 -20.378906 1.460938 -13.65625 C 1.460938 -6.222656 6.515625 0.5 14.074219 0.5 C 21.464844 0.5 27.0625 -6.015625 27.0625 -13.53125 Z M 22.59375 -13.867188 C 22.59375 -4.425781 19.796875 0 14.285156 0 C 8.476562 0 5.890625 -3.757812 5.890625 -14.535156 C 5.890625 -22.261719 8.226562 -28.066406 14.367188 -28.066406 C 20.632812 -28.066406 22.59375 -22.386719 22.59375 -13.867188 Z M 22.59375 -13.867188 "/></g></g><g transform="translate(189.515998, 45.245373)"><g><path d="M 23.636719 -28.066406 L 0.25 -28.066406 L 0.25 -20.046875 L 0.710938 -20.046875 C 1.292969 -23.972656 4.175781 -27.5625 7.476562 -27.5625 L 9.816406 -27.5625 L 9.816406 -0.5 L 6.890625 -0.5 L 6.890625 0 L 16.996094 0 L 16.996094 -0.5 L 14.074219 -0.5 L 14.074219 -27.5625 L 16.414062 -27.5625 C 19.710938 -27.5625 22.59375 -23.972656 23.179688 -20.046875 L 23.636719 -20.046875 Z M 23.636719 -28.066406 "/></g></g></g><g fill="#000000" fill-opacity="1"><g transform="translate(214.323832, 45.245373)"><g><path d="M 10.984375 -0.5 L 8.058594 -0.5 L 8.058594 -27.5625 L 10.984375 -27.5625 L 10.984375 -28.066406 L 0.878906 -28.066406 L 0.878906 -27.5625 L 3.800781 -27.5625 L 3.800781 -0.5 L 0.878906 -0.5 L 0.878906 0 L 10.984375 0 Z M 10.984375 -0.5 "/></g></g></g><g fill="#000000" fill-opacity="1"><g transform="translate(227.437729, 45.245373)"><g><path d="M 27.0625 -13.53125 C 27.0625 -20.546875 22.761719 -28.566406 14.367188 -28.566406 C 6.390625 -28.566406 1.460938 -20.378906 1.460938 -13.65625 C 1.460938 -6.222656 6.515625 0.5 14.074219 0.5 C 21.464844 0.5 27.0625 -6.015625 27.0625 -13.53125 Z M 22.59375 -13.867188 C 22.59375 -4.425781 19.796875 0 14.285156 0 C 8.476562 0 5.890625 -3.757812 5.890625 -14.535156 C 5.890625 -22.261719 8.226562 -28.066406 14.367188 -28.066406 C 20.632812 -28.066406 22.59375 -22.386719 22.59375 -13.867188 Z M 22.59375 -13.867188 "/></g></g></g><g fill="#000000" fill-opacity="1"><g transform="translate(256.213165, 45.245373)"><g><path d="M 24.890625 -28.066406 L 18.460938 -28.066406 L 18.460938 -27.5625 L 21.382812 -27.5625 L 21.382812 -7.808594 L 21.257812 -7.808594 L 8.3125 -28.066406 L 0.460938 -28.066406 L 0.460938 -27.5625 L 3.382812 -27.5625 L 3.382812 -0.5 L 0.460938 -0.5 L 0.460938 0 L 6.890625 0 L 6.890625 -0.5 L 3.96875 -0.5 L 3.96875 -27.148438 L 4.09375 -27.148438 L 21.675781 0.542969 L 21.96875 0.542969 L 21.96875 -27.5625 L 24.890625 -27.5625 Z M 24.890625 -28.066406 "/></g></g></g><g fill="#000000" fill-opacity="1"><g transform="translate(106.317763, 74.102748)"><g><path d="M 13.75 -4.65625 L 4.046875 -4.65625 L 1.96875 0 L 0.046875 0 L 8 -17.40625 L 9.8125 -17.40625 L 17.78125 0 L 15.828125 0 Z M 13.078125 -6.140625 L 8.90625 -15.484375 L 4.71875 -6.140625 Z M 13.078125 -6.140625 "/></g></g></g><g fill="#000000" fill-opacity="1"><g transform="translate(123.890664, 74.102748)"><g><path d="M 10.390625 0.15625 C 8.671875 0.15625 7.117188 -0.222656 5.734375 -0.984375 C 4.347656 -1.753906 3.257812 -2.8125 2.46875 -4.15625 C 1.6875 -5.507812 1.296875 -7.023438 1.296875 -8.703125 C 1.296875 -10.378906 1.6875 -11.890625 2.46875 -13.234375 C 3.257812 -14.585938 4.347656 -15.644531 5.734375 -16.40625 C 7.128906 -17.164062 8.691406 -17.546875 10.421875 -17.546875 C 11.710938 -17.546875 12.90625 -17.332031 14 -16.90625 C 15.09375 -16.476562 16.019531 -15.847656 16.78125 -15.015625 L 15.609375 -13.84375 C 14.253906 -15.21875 12.539062 -15.90625 10.46875 -15.90625 C 9.09375 -15.90625 7.835938 -15.585938 6.703125 -14.953125 C 5.578125 -14.328125 4.695312 -13.46875 4.0625 -12.375 C 3.425781 -11.28125 3.109375 -10.054688 3.109375 -8.703125 C 3.109375 -7.335938 3.425781 -6.109375 4.0625 -5.015625 C 4.695312 -3.921875 5.578125 -3.054688 6.703125 -2.421875 C 7.835938 -1.796875 9.09375 -1.484375 10.46875 -1.484375 C 12.550781 -1.484375 14.265625 -2.179688 15.609375 -3.578125 L 16.78125 -2.40625 C 16.019531 -1.582031 15.085938 -0.945312 13.984375 -0.5 C 12.878906 -0.0625 11.679688 0.15625 10.390625 0.15625 Z M 10.390625 0.15625 "/></g></g></g><g fill="#000000" fill-opacity="1"><g transform="translate(141.538136, 74.102748)"><g><path d="M 6.21875 -15.8125 L 0.09375 -15.8125 L 0.09375 -17.40625 L 14.171875 -17.40625 L 14.171875 -15.8125 L 8.046875 -15.8125 L 8.046875 0 L 6.21875 0 Z M 6.21875 -15.8125 "/></g></g></g><g fill="#000000" fill-opacity="1"><g transform="translate(155.805263, 74.102748)"><g><path d="M 2.828125 -17.40625 L 4.671875 -17.40625 L 4.671875 0 L 2.828125 0 Z M 2.828125 -17.40625 "/></g></g></g><g fill="#000000" fill-opacity="1"><g transform="translate(163.1128, 74.102748)"><g><path d="M 17.296875 -17.40625 L 9.59375 0 L 7.78125 0 L 0.078125 -17.40625 L 2.0625 -17.40625 L 8.71875 -2.28125 L 15.4375 -17.40625 Z M 17.296875 -17.40625 "/></g></g></g><g fill="#000000" fill-opacity="1"><g transform="translate(180.08916, 74.102748)"><g><path d="M 15.140625 -1.59375 L 15.140625 0 L 2.828125 0 L 2.828125 -17.40625 L 14.765625 -17.40625 L 14.765625 -15.8125 L 4.671875 -15.8125 L 4.671875 -9.625 L 13.671875 -9.625 L 13.671875 -8.046875 L 4.671875 -8.046875 L 4.671875 -1.59375 Z M 15.140625 -1.59375 "/></g></g></g><path stroke-linecap="round" transform="matrix(0.745786, 0.000000000000000385, -0.000000000000000385, 0.745786, 20.891843, 65.150979)" fill="none" stroke-linejoin="miter" d="M 0.501192 0.499417 L 109.67181 0.499417 " stroke="#000000" stroke-width="1" stroke-opacity="1" stroke-miterlimit="4"/><path stroke-linecap="round" transform="matrix(0.745786, 0.000000000000000385, -0.000000000000000385, 0.745786, 199.988544, 64.778086)" fill="none" stroke-linejoin="miter" d="M 0.502473 0.50183 L 109.667853 0.50183 " stroke="#000000" stroke-width="1" stroke-opacity="1" stroke-miterlimit="4"/></svg>